<?xml version="1.0" standalone="no"?>
<!DOCTYPE svg PUBLIC "-//W3C//DTD SVG 20010904//EN"
 "http://www.w3.org/TR/2001/REC-SVG-20010904/DTD/svg10.dtd">
<svg version="1.0" xmlns="http://www.w3.org/2000/svg"
 width="768.000000pt" height="326.000000pt" viewBox="0 0 768.000000 326.000000"
 preserveAspectRatio="xMidYMid meet">

<g transform="translate(0.000000,326.000000) scale(0.100000,-0.100000)"
fill="#000000" stroke="none">
<path d="M6320 2950 c0 -137 -3 -250 -7 -250 -3 0 -22 18 -41 40 -19 23 -57
53 -86 68 -46 24 -62 27 -151 27 -87 0 -107 -3 -157 -27 -31 -14 -78 -47 -103
-73 -134 -133 -154 -372 -45 -531 67 -96 178 -153 301 -154 104 0 160 21 228
87 30 29 56 53 58 53 2 0 3 -12 3 -27 0 -16 3 -45 6 -65 l7 -38 83 0 84 0 0
570 0 570 -90 0 -90 0 0 -250z m-162 -295 c126 -53 177 -210 107 -331 -66
-114 -229 -143 -337 -61 -60 46 -83 97 -83 183 0 61 4 77 30 119 56 91 183
131 283 90z"/>
<path d="M1450 3184 c-14 -2 -59 -9 -100 -15 -155 -23 -300 -70 -456 -149
-529 -269 -862 -809 -864 -1403 0 -253 55 -479 177 -719 210 -415 613 -724
1066 -818 336 -70 654 -37 967 100 294 129 561 368 721 646 145 251 209 496
209 793 0 333 -87 616 -274 891 -224 330 -586 568 -991 651 -96 20 -390 35
-455 23z m489 -958 c155 -270 278 -493 274 -496 -5 -3 -224 -2 -488 2 -264 4
-483 4 -486 0 -4 -4 -86 -144 -183 -312 l-176 -305 850 -3 849 -2 50 -77 c27
-43 47 -81 45 -85 -7 -11 -2062 -10 -2069 1 -3 5 77 150 176 323 100 172 224
385 274 473 l93 160 293 -3 c162 -1 338 -5 392 -9 73 -4 97 -3 97 7 0 6 -66
127 -147 267 -97 168 -149 250 -154 241 -5 -7 -32 -53 -61 -103 l-54 -90 -93
-3 c-85 -3 -93 -1 -87 15 8 20 274 482 289 501 8 11 12 11 22 0 7 -7 139 -233
294 -502z"/>
<path d="M3995 2831 c-97 -25 -203 -114 -250 -209 -97 -195 -15 -442 179 -537
50 -24 76 -30 152 -33 99 -5 144 5 207 45 l37 23 0 87 c0 81 -1 85 -17 71 -10
-9 -36 -25 -58 -35 -162 -80 -345 25 -345 199 0 143 104 236 255 226 49 -3 74
-11 114 -36 l52 -32 -3 88 -3 87 -55 30 c-48 25 -67 29 -145 32 -49 1 -103 -2
-120 -6z"/>
<path d="M4885 2831 c-59 -15 -157 -75 -196 -119 -21 -25 -51 -70 -66 -101
-25 -51 -28 -66 -28 -166 0 -98 3 -116 26 -166 48 -102 136 -178 247 -214 41
-13 78 -16 151 -13 85 3 106 8 162 35 253 125 304 455 100 646 -78 73 -145 99
-266 103 -55 2 -114 0 -130 -5z m211 -180 c94 -43 150 -158 125 -257 -28 -111
-114 -178 -229 -177 -76 1 -140 35 -187 102 -27 39 -30 50 -30 124 0 75 3 86
30 127 60 89 192 126 291 81z"/>
<path d="M7084 2831 c-97 -25 -196 -111 -242 -209 -25 -52 -27 -68 -27 -177 0
-112 2 -124 29 -180 38 -76 105 -143 181 -181 56 -27 68 -29 175 -29 137 0
180 15 264 94 51 49 96 124 82 138 -3 4 -36 10 -73 15 -67 8 -67 8 -103 -26
-64 -62 -134 -82 -223 -65 -82 15 -142 71 -154 143 l-6 36 293 0 293 0 -5 84
c-10 149 -92 277 -216 334 -46 21 -75 27 -147 29 -49 1 -104 -1 -121 -6z m201
-170 c64 -29 120 -108 100 -140 -4 -7 -73 -11 -195 -11 -122 0 -191 4 -195 11
-11 17 3 55 32 90 37 44 96 69 163 69 32 0 72 -8 95 -19z"/>
<path d="M3995 1556 c-75 -19 -125 -48 -178 -105 -189 -202 -132 -536 111
-649 43 -20 77 -27 137 -30 108 -5 180 22 245 89 26 27 50 49 53 49 3 0 7 -28
9 -62 l3 -63 85 0 85 0 0 380 0 380 -87 3 -88 3 0 -66 c0 -36 -3 -65 -7 -65
-5 0 -21 16 -36 35 -38 48 -94 83 -158 101 -64 16 -107 17 -174 0z m223 -185
c79 -41 122 -113 122 -206 0 -132 -93 -225 -225 -225 -106 0 -191 64 -221 167
-30 104 19 213 121 266 44 23 156 22 203 -2z"/>
<path d="M5145 1564 c-11 -3 -36 -10 -57 -15 -55 -14 -153 -84 -191 -137 -96
-131 -105 -316 -24 -455 35 -59 107 -124 175 -155 50 -24 70 -27 157 -27 91 0
105 3 160 30 l60 30 3 89 c3 86 2 89 -15 73 -62 -55 -191 -74 -268 -38 -164
75 -183 299 -33 398 35 24 54 29 122 31 74 3 86 1 139 -27 l57 -30 0 84 0 84
-63 31 c-63 31 -171 47 -222 34z"/>
<path d="M5984 1556 c-71 -17 -133 -56 -187 -116 -60 -67 -89 -143 -95 -247
-9 -175 74 -320 223 -390 54 -25 71 -28 165 -28 94 0 111 3 165 28 68 32 137
94 166 149 31 60 28 64 -56 72 l-75 7 -30 -35 c-44 -50 -104 -70 -190 -64 -87
7 -138 37 -169 100 -40 83 -58 78 269 78 l290 0 0 63 c0 262 -226 444 -476
383z m200 -176 c54 -26 88 -68 90 -113 l1 -32 -189 -3 c-108 -1 -194 2 -199 7
-15 15 10 74 47 110 64 62 161 74 250 31z"/>
<path d="M6765 929 c-33 -19 -45 -41 -45 -80 0 -72 91 -107 140 -54 30 32 32
87 4 115 -24 25 -73 34 -99 19z"/>
<path d="M4693 463 c532 -2 1402 -2 1935 0 532 1 96 2 -968 2 -1064 0 -1500
-1 -967 -2z"/>
<path d="M3727 283 c-4 -3 -7 -42 -7 -85 0 -63 3 -78 15 -78 12 0 15 16 15 85
0 78 -5 96 -23 78z"/>
<path d="M3895 281 c-3 -5 5 -11 17 -13 21 -3 23 -9 26 -75 2 -55 6 -73 17
-73 11 0 15 18 17 73 3 66 5 72 26 75 42 6 11 22 -43 22 -30 0 -56 -4 -60 -9z"/>
<path d="M4358 279 c-21 -12 -24 -52 -5 -66 6 -6 29 -16 50 -23 27 -8 37 -17
35 -28 -4 -24 -59 -29 -74 -7 -14 19 -36 12 -28 -9 8 -21 60 -39 89 -32 28 7
45 39 37 68 -2 10 -21 23 -43 30 -49 14 -65 31 -45 47 16 13 56 6 56 -10 0 -5
7 -9 15 -9 19 0 19 14 -1 34 -17 18 -60 20 -86 5z"/>
<path d="M4636 269 c-53 -42 -21 -159 44 -159 29 0 76 26 84 45 35 93 -54 172
-128 114z m84 -19 c22 -22 26 -60 10 -91 -12 -22 -59 -26 -78 -7 -17 17 -15
78 5 100 21 23 38 23 63 -2z"/>
<path d="M5174 275 c-4 -9 -4 -42 -1 -73 4 -42 12 -62 28 -74 28 -24 64 -23
89 2 18 18 20 31 18 88 -4 87 -22 87 -26 0 -2 -55 -7 -70 -22 -78 -34 -18 -60
19 -60 84 0 54 -14 82 -26 51z"/>
<path d="M5455 281 c-3 -5 5 -11 17 -13 21 -3 23 -9 26 -75 2 -55 6 -73 17
-73 11 0 15 18 17 73 3 66 5 72 26 75 42 6 11 22 -43 22 -30 0 -56 -4 -60 -9z"/>
<path d="M5727 283 c-4 -3 -7 -42 -7 -85 0 -63 3 -78 15 -78 12 0 15 16 15 85
0 78 -5 96 -23 78z"/>
<path d="M5933 278 c-27 -13 -46 -66 -37 -102 7 -30 48 -66 75 -66 33 0 67 22
79 51 14 33 6 92 -14 108 -21 17 -78 22 -103 9z m77 -28 c41 -41 17 -114 -35
-108 -39 4 -60 44 -44 84 18 48 46 57 79 24z"/>
<path d="M6207 284 c-4 -4 -7 -43 -7 -86 0 -63 3 -78 15 -78 11 0 15 12 15 50
0 28 4 50 8 50 4 0 21 -22 37 -50 18 -31 36 -50 48 -50 16 0 18 8 15 83 -3 91
-21 112 -26 30 -2 -29 -6 -53 -10 -53 -4 0 -20 24 -37 52 -30 51 -45 65 -58
52z"/>
<path d="M6508 279 c-21 -12 -24 -52 -5 -66 6 -6 29 -16 50 -23 27 -8 37 -17
35 -28 -4 -23 -58 -29 -70 -8 -11 20 -28 21 -28 2 0 -19 39 -46 66 -46 12 0
32 9 45 19 36 29 18 70 -39 89 -31 10 -42 19 -40 31 4 21 41 26 58 6 16 -19
30 -19 30 0 0 30 -66 46 -102 24z"/>
<path d="M7470 206 c0 -51 4 -86 10 -86 6 0 10 14 10 30 0 26 4 30 28 30 41 0
72 26 72 60 0 35 -6 39 -70 47 l-50 6 0 -87z m71 54 c10 -6 19 -20 19 -30 0
-16 -7 -20 -35 -20 -30 0 -35 3 -35 24 0 20 8 30 28 35 2 1 12 -4 23 -9z"/>
<path d="M4920 200 l0 -80 55 0 c65 0 74 17 13 22 l-43 3 -3 68 c-4 94 -22 84
-22 -13z"/>
<path d="M6940 200 l0 -80 60 0 c33 0 60 4 60 10 0 6 -20 10 -45 10 l-45 0 0
70 c0 56 -3 70 -15 70 -12 0 -15 -16 -15 -80z"/>
<path d="M7200 200 l0 -80 60 0 c33 0 60 4 60 10 0 6 -20 10 -45 10 l-45 0 0
70 c0 56 -3 70 -15 70 -12 0 -15 -16 -15 -80z"/>
</g>
</svg>
